<svg id="Layer_1" data-name="Layer 1" xmlns="http://www.w3.org/2000/svg" viewBox="0 0 291.5 55.05"><defs><style>.cls-1{fill:none;}.cls-2{fill:#575756;}.cls-3{fill:#010101;}</style></defs><path class="cls-1" d="M71,32" transform="translate(-71 -32)"/><rect class="cls-2" x="23.44" y="6.51" width="13.02" height="2.6"/><rect class="cls-2" x="23.44" y="24.74" width="13.02" height="2.6"/><rect class="cls-2" x="23.44" y="32.55" width="13.02" height="2.6"/><polygon class="cls-2" points="9.12 0 6.51 0 6.51 6.51 0 6.51 0 9.12 6.51 9.12 6.51 15.63 9.12 15.63 9.12 9.12 15.63 9.12 15.63 6.51 9.12 6.51 9.12 0"/><polygon class="cls-2" points="13.46 23.23 8.43 28.27 3.42 23.27 1.78 24.91 6.78 29.91 1.75 34.95 3.44 36.64 8.48 31.6 13.5 36.63 15.14 34.99 10.12 29.98 15.16 24.92 13.46 23.23"/><path class="cls-3" d="M259.2,87.05A20.8,20.8,0,1,1,280,66.25a1.67,1.67,0,1,1-3.33,0A17.46,17.46,0,1,0,274.33,75a1.66,1.66,0,1,1,2.89,1.64v0A20.83,20.83,0,0,1,259.2,87.05Z" transform="translate(-71 -32)"/><path class="cls-3" d="M263.36,65.42H255a1.66,1.66,0,0,1-1.66-1.66V57.93a5.83,5.83,0,0,1,11.65,0v5.83A1.66,1.66,0,0,1,263.36,65.42Zm-6.65-3.33h5V57.93a2.5,2.5,0,0,0-5,0ZM237,42.13" transform="translate(-71 -32)"/><path class="cls-3" d="M329.84,48.37h-.7a7.08,7.08,0,1,0-.5,3.61.57.57,0,0,0-1.05-.44h0a6,6,0,1,1,.4-3.17h-.57a.16.16,0,0,0-.12.28l1.21,1.21a.17.17,0,0,0,.23,0h0L330,48.65a.15.15,0,0,0,0-.23A.16.16,0,0,0,329.84,48.37Zm-7.76-2.64a2,2,0,0,0-2,2v.87h0a.57.57,0,0,0-.57.57v3.18a.56.56,0,0,0,.57.56h4a.57.57,0,0,0,.57-.56V49.17a.58.58,0,0,0-.57-.57h0v-.87a2,2,0,0,0-2-2Zm1.45,2.87h-2.88v-.87a1.44,1.44,0,0,1,2.88,0Z" transform="translate(-71 -32)"/><path class="cls-1" d="M494,42.13" transform="translate(-71 -32)"/><path class="cls-3" d="M354.86,54.31l-7.64-7.64a10.82,10.82,0,0,1,15.28,0Z" transform="translate(-71 -32)"/><path class="cls-3" d="M465.46,38.57" transform="translate(-71 -32)"/></svg>