<svg xmlns="http://www.w3.org/2000/svg" id="Layer_1" x="0" y="0" version="1.1" viewBox="0 0 29 29" xml:space="preserve"><path d="M13.345 27c-6.893 0-12.5-5.607-12.5-12.5S6.453 2 13.345 2s12.5 5.607 12.5 12.5a1 1 0 1 1-2 0c0-5.79-4.71-10.5-10.5-10.5s-10.5 4.71-10.5 10.5S7.556 25 13.345 25c3.739 0 7.224-2.012 9.093-5.25a1 1 0 1 1 1.732 1A12.533 12.533 0 0 1 13.345 27z"/><path d="M15.845 14h-5a1 1 0 0 1-1-1V9.5c0-1.93 1.57-3.5 3.5-3.5s3.5 1.57 3.5 3.5V13a1 1 0 0 1-1 1zm-4-2h3V9.5c0-.827-.673-1.5-1.5-1.5s-1.5.673-1.5 1.5V12z"/><path d="M17.845 21h-9c-1.103 0-2-.897-2-2v-4c0-1.654 1.346-3 3-3h7c1.654 0 3 1.346 3 3v4c0 1.103-.897 2-2 2zm-8-7c-.551 0-1 .448-1 1v4h9.001l-.001-4c0-.552-.449-1-1-1h-7zM26.775 14a.38.38 0 01.326.573l-1.929 3.241a.38.38 0 01-.652 0l-1.929-3.241a.379.379 0 01.325-.573h3.859z"/></svg>