<svg xmlns="http://www.w3.org/2000/svg" data-name="Layer 1" viewBox="0 0 29 29"><path d="M28.13068,13H26.9082a12.49128,12.49128,0,1,0-.88965,6.36133.99975.99975,0,1,0-1.84179-.77832A10.51919,10.51919,0,1,1,24.88318,13H23.86932a.289.289,0,0,0-.20434.49335L25.79565,15.624a.28888.28888,0,0,0,.4087,0L28.335,13.49335A.289.289,0,0,0,28.13068,13Zm-13.658-4.63672a3.51091,3.51091,0,0,0-3.50684,3.50684v1.54425h-.01715a1,1,0,0,0-1,1V20a1,1,0,0,0,1,1h7.10266a1,1,0,0,0,1-1V14.41437a1,1,0,0,0-1-1h-.01715V11.87012A3.523,3.523,0,0,0,14.47266,8.36328Zm2.56152,5.05109H11.96582V11.87012a2.53433,2.53433,0,0,1,5.06836,0Z"/></svg>